<svg width="1440" height="300" viewBox="0 0 1440 300" fill="none" xmlns="http://www.w3.org/2000/svg">
<g clip-path="url(#clip0_2122_8330)">
<path opacity="0.5" d="M795.935 -502.113H847.47L847.504 -502.054L847.539 -502.113H898.917L898.931 -502.137H1617.92L1617.93 -502.113H1669.47L1669.54 -501.988L1695.22 -457.424L1695.29 -457.3L1695.22 -457.175L1669.61 -412.731L1695.22 -368.288L1695.29 -368.164L1695.22 -368.039L1669.61 -323.596L1695.22 -279.152L1695.29 -279.027L1695.22 -278.903L1669.63 -234.499L1695.22 -190.094L1695.29 -189.969L1695.22 -189.845L1669.6 -145.39L1695.22 -100.935L1695.29 -100.811L1695.22 -100.686L1669.61 -56.2432L1695.22 -11.7998L1695.29 -11.6748L1695.22 -11.5498L1669.61 32.8936L1695.22 77.3369L1695.29 77.4609L1695.22 77.5859L1669.63 121.99L1695.22 166.396L1695.29 166.52L1695.22 166.645L1669.62 211.076L1695.22 255.508L1695.29 255.633L1695.22 255.757L1669.54 300.321L1669.47 300.446H1617.94L1617.92 300.478H898.931L898.913 300.446H847.539L847.504 300.386L847.47 300.446H795.938L795.921 300.478H76.9307L76.9131 300.446H25.5391L25.4678 300.321L-0.216797 255.757L-0.288086 255.633L-0.216797 255.508L25.3906 211.076L-0.216797 166.645L-0.288086 166.52L-0.216797 166.396L25.3975 121.952L-0.216797 77.5088L-0.288086 77.3848L-0.216797 77.2598L25.375 32.8545L-0.216797 -11.5498L-0.288086 -11.6748L-0.216797 -11.7998L25.3975 -56.2432L-0.216797 -100.686L-0.288086 -100.811L-0.216797 -100.935L25.4043 -145.39L-0.216797 -189.845L-0.288086 -189.969L-0.216797 -190.094L25.3975 -234.537L-0.216797 -278.98L-0.288086 -279.104L-0.216797 -279.229L25.375 -323.635L-0.216797 -368.039L-0.288086 -368.164L-0.216797 -368.288L25.3975 -412.731L-0.216797 -457.175L-0.288086 -457.3L-0.216797 -457.424L25.4678 -501.988L25.5391 -502.113H76.917L76.9307 -502.137H795.921L795.935 -502.113ZM77.4492 299.978H128.002L102.721 256.111L77.4492 299.978ZM128.867 299.978H179.353L154.109 256.164L128.867 299.978ZM180.217 299.978H230.711L205.46 256.164L180.217 299.978ZM231.576 299.978H282.062L256.818 256.163L231.576 299.978ZM282.927 299.978H333.421L308.169 256.164L282.927 299.978ZM334.285 299.978H384.771L359.527 256.164L334.285 299.978ZM385.636 299.978H435.857L410.746 256.392L385.636 299.978ZM436.994 299.978H487.208L462.101 256.399L436.994 299.978ZM488.072 299.978H538.567L513.323 256.164L488.072 299.978ZM539.432 299.978H589.926L564.674 256.163L539.432 299.978ZM590.791 299.978H641.276L616.033 256.164L590.791 299.978ZM642.141 299.978H692.635L667.388 256.155L642.141 299.978ZM693.5 299.978H743.985L718.742 256.163L693.5 299.978ZM744.85 299.978H795.56L770.205 255.969L744.85 299.978ZM899.449 299.978H950.002L924.721 256.111L899.449 299.978ZM950.867 299.978H1001.35L976.109 256.164L950.867 299.978ZM1002.22 299.978H1052.71L1027.46 256.164L1002.22 299.978ZM1053.58 299.978H1104.06L1078.82 256.163L1053.58 299.978ZM1104.93 299.978H1155.42L1130.17 256.164L1104.93 299.978ZM1156.29 299.978H1206.77L1181.53 256.164L1156.29 299.978ZM1207.64 299.978H1257.86L1232.75 256.392L1207.64 299.978ZM1258.99 299.978H1309.21L1284.1 256.399L1258.99 299.978ZM1310.07 299.978H1360.57L1335.32 256.164L1310.07 299.978ZM1361.43 299.978H1411.93L1386.67 256.163L1361.43 299.978ZM1412.79 299.978H1463.28L1438.03 256.164L1412.79 299.978ZM1464.14 299.978H1514.63L1489.39 256.155L1464.14 299.978ZM1515.5 299.978H1565.99L1540.74 256.163L1515.5 299.978ZM1566.85 299.978H1617.56L1592.21 255.969L1566.85 299.978ZM411.034 255.435L411.095 255.539L411.167 255.663L411.095 255.788L411.034 255.892L436.426 299.962L461.812 255.898L461.749 255.788L461.677 255.663L461.749 255.539L461.812 255.428L436.427 211.365H436.426L411.034 255.435ZM1233.03 255.435L1233.09 255.539L1233.17 255.663L1233.09 255.788L1233.03 255.892L1258.43 299.962L1283.81 255.898L1283.75 255.788L1283.68 255.663L1283.75 255.539L1283.81 255.428L1258.43 211.365H1258.43L1233.03 255.435ZM0.288086 255.632L25.8281 299.946H76.624L51.1836 255.788L51.1113 255.663L51.1836 255.539L76.6514 211.334H25.8193L0.288086 255.632ZM821.669 255.788L796.228 299.946H847.181L847.216 299.884L821.783 255.757L821.734 255.672L821.669 255.788ZM847.793 299.885L847.828 299.946H898.624L873.19 255.801L847.793 299.885ZM1643.67 255.539L1643.74 255.663L1643.67 255.788L1618.23 299.946H1669.18L1694.71 255.632L1669.19 211.334H1618.2L1643.67 255.539ZM154.397 255.663L179.784 299.727L205.171 255.663L179.784 211.6L154.397 255.663ZM308.457 255.663L333.853 299.727L359.239 255.663L333.853 211.6L308.457 255.663ZM462.389 255.427L462.454 255.539L462.525 255.663L462.454 255.788L462.389 255.899L487.64 299.727L513.035 255.663L487.64 211.6L462.389 255.427ZM513.612 255.663L538.999 299.727L564.386 255.663L538.999 211.6L513.612 255.663ZM616.321 255.663L641.708 299.727L667.095 255.663L641.708 211.6L616.321 255.663ZM719.03 255.663L744.417 299.727L769.804 255.663L744.417 211.6L719.03 255.663ZM976.397 255.663L1001.78 299.727L1027.17 255.663L1001.78 211.6L976.397 255.663ZM1130.46 255.663L1155.85 299.727L1181.24 255.663L1155.85 211.6L1130.46 255.663ZM1284.39 255.427L1284.45 255.539L1284.53 255.663L1284.45 255.788L1284.39 255.899L1309.64 299.727L1335.04 255.663L1309.64 211.6L1284.39 255.427ZM1335.61 255.663L1361 299.727L1386.39 255.663L1361 211.6L1335.61 255.663ZM1438.32 255.663L1463.71 299.727L1489.09 255.663L1463.71 211.6L1438.32 255.663ZM1541.03 255.663L1566.42 299.727L1591.8 255.663L1566.42 211.6L1541.03 255.663ZM103.038 255.663L128.434 299.726L153.82 255.663L128.434 211.601L103.038 255.663ZM205.748 255.663L231.143 299.726L256.53 255.663L231.143 211.601L205.748 255.663ZM257.106 255.663L282.493 299.726L307.88 255.663L282.493 211.601L257.106 255.663ZM359.816 255.663L385.203 299.726L410.458 255.891L410.398 255.788L410.326 255.663L410.398 255.539L410.458 255.436L385.203 211.601L359.816 255.663ZM564.962 255.663L590.357 299.726L615.744 255.663L590.357 211.601L564.962 255.663ZM667.68 255.663L693.067 299.726L718.454 255.663L693.067 211.601L667.68 255.663ZM925.038 255.663L950.434 299.726L975.82 255.663L950.434 211.601L925.038 255.663ZM1027.75 255.663L1053.14 299.726L1078.53 255.663L1053.14 211.601L1027.75 255.663ZM1079.11 255.663L1104.49 299.726L1129.88 255.663L1104.49 211.601L1079.11 255.663ZM1181.82 255.663L1207.2 299.726L1232.46 255.891L1232.4 255.788L1232.33 255.663L1232.4 255.539L1232.46 255.436L1207.2 211.601L1181.82 255.663ZM1386.96 255.663L1412.36 299.726L1437.74 255.663L1412.36 211.601L1386.96 255.663ZM1489.68 255.663L1515.07 299.726L1540.45 255.663L1515.07 211.601L1489.68 255.663ZM51.6885 255.663L77.0449 299.675L102.42 255.632L77.0635 211.62L51.6885 255.663ZM873.688 255.663L899.045 299.675L924.42 255.632L899.063 211.62L873.688 255.663ZM770.588 255.632L795.885 299.539L821.163 255.663L795.866 211.756L770.588 255.632ZM1592.59 255.632L1617.88 299.539L1643.16 255.663L1617.87 211.756L1592.59 255.632ZM822.288 255.632L847.504 299.384L872.711 255.632L847.504 211.88L822.288 255.632ZM821.669 255.539L821.717 255.623L821.783 255.508L847.215 211.379L847.189 211.334H796.2L821.669 255.539ZM847.793 211.379L873.209 255.494L898.651 211.334H847.819L847.793 211.379ZM770.187 255.326L795.515 211.365H744.858L770.187 255.326ZM1592.19 255.326L1617.51 211.365H1566.86L1592.19 255.326ZM102.738 255.184L127.992 211.365H77.4941L102.738 255.184ZM924.738 255.184L949.992 211.365H899.494L924.738 255.184ZM667.388 255.171L692.626 211.365H642.149L667.388 255.171ZM1489.39 255.171L1514.63 211.365H1464.15L1489.39 255.171ZM256.818 255.163L282.053 211.365H231.585L256.818 255.163ZM564.674 255.163L589.916 211.365H539.44L564.674 255.163ZM718.742 255.163L743.977 211.365H693.509L718.742 255.163ZM1078.82 255.163L1104.05 211.365H1053.58L1078.82 255.163ZM1386.67 255.163L1411.92 211.365H1361.44L1386.67 255.163ZM1540.74 255.163L1565.98 211.365H1515.51L1540.74 255.163ZM154.109 255.162L179.344 211.365H128.876L154.109 255.162ZM205.46 255.162L230.701 211.365H180.226L205.46 255.162ZM308.169 255.162L333.411 211.365H282.936L308.169 255.162ZM359.527 255.162L384.762 211.365H334.294L359.527 255.162ZM513.323 255.162L538.559 211.365H488.082L513.323 255.162ZM616.033 255.162L641.268 211.365H590.8L616.033 255.162ZM976.109 255.162L1001.34 211.365H950.876L976.109 255.162ZM1027.46 255.162L1052.7 211.365H1002.23L1027.46 255.162ZM1130.17 255.162L1155.41 211.365H1104.94L1130.17 255.162ZM1181.53 255.162L1206.76 211.365H1156.29L1181.53 255.162ZM1335.32 255.162L1360.56 211.365H1310.08L1335.32 255.162ZM1438.03 255.162L1463.27 211.365H1412.8L1438.03 255.162ZM410.746 254.935L435.849 211.365H385.645L410.746 254.935ZM1232.75 254.935L1257.85 211.365H1207.64L1232.75 254.935ZM462.101 254.927L487.199 211.365H437.003L462.101 254.927ZM1284.1 254.927L1309.2 211.365H1259L1284.1 254.927ZM77.458 210.85H127.993L102.721 166.999L77.458 210.85ZM128.876 210.85H179.344L154.109 167.052L128.876 210.85ZM180.226 210.85H230.702L205.46 167.052L180.226 210.85ZM231.585 210.85H282.053L256.818 167.051L231.585 210.85ZM282.936 210.85H333.412L308.169 167.052L282.936 210.85ZM334.294 210.85H384.762L359.527 167.052L334.294 210.85ZM385.645 210.85H435.849L410.746 167.279L385.645 210.85ZM411.034 166.321L411.095 166.426L411.167 166.551L411.095 166.676L411.034 166.779L436.426 210.85H436.427L461.812 166.786L461.749 166.676L461.677 166.551L461.749 166.426L461.812 166.314L436.426 122.251L411.034 166.321ZM437.003 210.85H487.199L462.101 167.287L437.003 210.85ZM488.081 210.85H538.559L513.323 167.052L488.081 210.85ZM539.44 210.85H589.917L564.674 167.051L539.44 210.85ZM590.8 210.85H641.268L616.033 167.052L590.8 210.85ZM642.149 210.85H692.626L667.388 167.043L642.149 210.85ZM693.509 210.85H743.977L718.742 167.051L693.509 210.85ZM744.858 210.85H795.551L770.205 166.856L744.858 210.85ZM899.458 210.85H949.993L924.721 166.999L899.458 210.85ZM950.876 210.85H1001.34L976.109 167.052L950.876 210.85ZM1002.23 210.85H1052.7L1027.46 167.052L1002.23 210.85ZM1053.58 210.85H1104.05L1078.82 167.051L1053.58 210.85ZM1104.94 210.85H1155.41L1130.17 167.052L1104.94 210.85ZM1156.29 210.85H1206.76L1181.53 167.052L1156.29 210.85ZM1207.64 210.85H1257.85L1232.75 167.279L1207.64 210.85ZM1233.03 166.321L1233.09 166.426L1233.17 166.551L1233.09 166.676L1233.03 166.779L1258.43 210.85H1258.43L1283.81 166.786L1283.75 166.676L1283.68 166.551L1283.75 166.426L1283.81 166.314L1258.43 122.251L1233.03 166.321ZM1259 210.85H1309.2L1284.1 167.287L1259 210.85ZM1310.08 210.85H1360.56L1335.32 167.052L1310.08 210.85ZM1361.44 210.85H1411.92L1386.67 167.051L1361.44 210.85ZM1412.8 210.85H1463.27L1438.03 167.052L1412.8 210.85ZM1464.15 210.85H1514.63L1489.39 167.043L1464.15 210.85ZM1515.51 210.85H1565.98L1540.74 167.051L1515.51 210.85ZM1566.86 210.85H1617.55L1592.21 166.856L1566.86 210.85ZM0.288086 166.52L25.8193 210.818H76.6162L51.1836 166.676L51.1113 166.551L51.1836 166.426L76.6602 122.206H25.8281L0.288086 166.52ZM821.669 166.676L796.235 210.818H847.189L847.215 210.772L821.783 166.645L821.734 166.56L821.669 166.676ZM847.793 210.772L847.819 210.818H898.616L873.19 166.688L847.793 210.772ZM1643.67 166.426L1643.74 166.551L1643.67 166.676L1618.24 210.818H1669.19L1694.71 166.52L1669.22 122.275H1618.23L1643.67 166.426ZM154.397 166.551L179.784 210.614L205.171 166.551L179.784 122.486L154.397 166.551ZM308.457 166.551L333.853 210.614L359.239 166.551L333.853 122.486L308.457 166.551ZM462.39 166.313L462.454 166.426L462.525 166.551L462.454 166.676L462.39 166.787L487.64 210.614L513.035 166.551L487.64 122.486L462.39 166.313ZM513.612 166.551L538.999 210.614L564.386 166.551L538.999 122.486L513.612 166.551ZM616.321 166.551L641.708 210.614L667.095 166.551L641.708 122.486L616.321 166.551ZM719.03 166.551L744.417 210.614L769.804 166.551L744.417 122.486L719.03 166.551ZM976.397 166.551L1001.78 210.614L1027.17 166.551L1001.78 122.486L976.397 166.551ZM1130.46 166.551L1155.85 210.614L1181.24 166.551L1155.85 122.486L1130.46 166.551ZM1284.39 166.313L1284.45 166.426L1284.53 166.551L1284.45 166.676L1284.39 166.787L1309.64 210.614L1335.04 166.551L1309.64 122.486L1284.39 166.313ZM1335.61 166.551L1361 210.614L1386.39 166.551L1361 122.486L1335.61 166.551ZM1438.32 166.551L1463.71 210.614L1489.09 166.551L1463.71 122.486L1438.32 166.551ZM1541.03 166.551L1566.42 210.614L1591.8 166.551L1566.42 122.486L1541.03 166.551ZM103.038 166.551L128.434 210.613L153.82 166.551L128.434 122.487L103.038 166.551ZM205.748 166.551L231.143 210.613L256.53 166.551L231.143 122.487L205.748 166.551ZM257.106 166.551L282.493 210.613L307.88 166.551L282.493 122.487L257.106 166.551ZM359.816 166.551L385.203 210.613L410.457 166.778L410.398 166.676L410.326 166.551L410.398 166.426L410.457 166.322L385.203 122.487L359.816 166.551ZM564.962 166.551L590.357 210.613L615.744 166.551L590.357 122.487L564.962 166.551ZM667.68 166.551L693.067 210.613L718.454 166.551L693.067 122.487L667.68 166.551ZM925.038 166.551L950.434 210.613L975.82 166.551L950.434 122.487L925.038 166.551ZM1027.75 166.551L1053.14 210.613L1078.53 166.551L1053.14 122.487L1027.75 166.551ZM1079.11 166.551L1104.49 210.613L1129.88 166.551L1104.49 122.487L1079.11 166.551ZM1181.82 166.551L1207.2 210.613L1232.46 166.778L1232.4 166.676L1232.33 166.551L1232.4 166.426L1232.46 166.322L1207.2 122.487L1181.82 166.551ZM1386.96 166.551L1412.36 210.613L1437.74 166.551L1412.36 122.487L1386.96 166.551ZM1489.68 166.551L1515.07 210.613L1540.45 166.551L1515.07 122.487L1489.68 166.551ZM51.6885 166.551L77.0449 210.562L102.42 166.52L77.0625 122.508L51.6885 166.551ZM873.688 166.551L899.045 210.562L924.42 166.52L899.062 122.508L873.688 166.551ZM770.588 166.52L795.885 210.427L821.163 166.551L795.867 122.644L770.588 166.52ZM1592.59 166.52L1617.88 210.427L1643.16 166.551L1617.87 122.644L1592.59 166.52ZM822.288 166.52L847.504 210.271L872.711 166.52L847.504 122.768L822.288 166.52ZM821.669 166.426L821.717 166.51L821.783 166.396L847.211 122.275H796.231L821.669 166.426ZM847.793 122.267L873.208 166.381L898.66 122.206H847.828L847.793 122.267ZM770.188 166.214L795.523 122.237H744.85L770.188 166.214ZM1592.19 166.214L1617.52 122.237H1566.85L1592.19 166.214ZM102.738 166.07L128.002 122.236H77.4844L102.738 166.07ZM924.738 166.07L950.002 122.236H899.484L924.738 166.07ZM667.388 166.058L692.634 122.236H642.14L667.388 166.058ZM1489.39 166.058L1514.63 122.236H1464.14L1489.39 166.058ZM256.818 166.05L282.062 122.237H231.576L256.818 166.05ZM564.674 166.05L589.926 122.237H539.432L564.674 166.05ZM718.742 166.05L743.985 122.237H693.5L718.742 166.05ZM1078.82 166.05L1104.06 122.237H1053.58L1078.82 166.05ZM1386.67 166.05L1411.93 122.237H1361.43L1386.67 166.05ZM1540.74 166.05L1565.99 122.237H1515.5L1540.74 166.05ZM154.109 166.049L179.352 122.236H128.866L154.109 166.049ZM205.46 166.049L230.711 122.237H180.217L205.46 166.049ZM308.169 166.049L333.421 122.237H282.927L308.169 166.049ZM359.527 166.049L384.771 122.236H334.285L359.527 166.049ZM513.323 166.049L538.567 122.237H488.072L513.323 166.049ZM616.033 166.049L641.276 122.236H590.791L616.033 166.049ZM976.109 166.049L1001.35 122.236H950.866L976.109 166.049ZM1027.46 166.049L1052.71 122.237H1002.22L1027.46 166.049ZM1130.17 166.049L1155.42 122.237H1104.93L1130.17 166.049ZM1181.53 166.049L1206.77 122.236H1156.29L1181.53 166.049ZM1335.32 166.049L1360.57 122.237H1310.07L1335.32 166.049ZM1438.03 166.049L1463.28 122.236H1412.79L1438.03 166.049ZM410.746 165.821L435.857 122.236H385.636L410.746 165.821ZM1232.75 165.821L1257.86 122.236H1207.64L1232.75 165.821ZM462.101 165.813L487.208 122.237H436.994L462.101 165.813ZM1284.1 165.813L1309.21 122.237H1258.99L1284.1 165.813ZM180.217 121.737H230.711L205.46 77.9238L180.217 121.737ZM231.576 121.737H282.062L256.818 77.9229L231.576 121.737ZM282.927 121.737H333.421L308.169 77.9238L282.927 121.737ZM436.994 121.737H487.208L462.101 78.1592L436.994 121.737ZM488.072 121.737H538.567L513.323 77.9238L488.072 121.737ZM539.432 121.737H589.926L564.674 77.9229L539.432 121.737ZM693.5 121.737H743.985L718.742 77.9229L693.5 121.737ZM744.85 121.737H795.52L770.185 77.7627L744.85 121.737ZM1002.22 121.737H1052.71L1027.46 77.9238L1002.22 121.737ZM1053.58 121.737H1104.06L1078.82 77.9229L1053.58 121.737ZM1104.93 121.737H1155.42L1130.17 77.9238L1104.93 121.737ZM1258.99 121.737H1309.21L1284.1 78.1592L1258.99 121.737ZM1310.07 121.737H1360.57L1335.32 77.9238L1310.07 121.737ZM1361.43 121.737H1411.93L1386.67 77.9229L1361.43 121.737ZM1515.5 121.737H1565.99L1540.74 77.9229L1515.5 121.737ZM1566.85 121.737H1617.52L1592.18 77.7627L1566.85 121.737ZM77.4453 121.736H128.002L102.719 77.8672L77.4453 121.736ZM128.867 121.736H179.353L154.109 77.9238L128.867 121.736ZM334.284 121.736H384.77L359.527 77.9238L334.284 121.736ZM385.636 121.736H435.857L410.746 78.1514L385.636 121.736ZM590.79 121.736H641.275L616.033 77.9238L590.79 121.736ZM642.141 121.736H692.635L667.388 77.915L642.141 121.736ZM899.445 121.736H950.002L924.719 77.8672L899.445 121.736ZM950.867 121.736H1001.35L976.109 77.9238L950.867 121.736ZM1156.28 121.736H1206.77L1181.53 77.9238L1156.28 121.736ZM1207.64 121.736H1257.86L1232.75 78.1514L1207.64 121.736ZM1412.79 121.736H1463.28L1438.03 77.9238L1412.79 121.736ZM1464.14 121.736H1514.63L1489.39 77.915L1464.14 121.736ZM411.034 77.1934L411.095 77.2979L411.167 77.4229L411.095 77.5479L411.034 77.6514L436.426 121.722L461.812 77.6582L461.749 77.5479L461.677 77.4229L461.749 77.2979L461.812 77.1865L436.426 33.123L411.034 77.1934ZM1233.03 77.1934L1233.09 77.2979L1233.17 77.4229L1233.09 77.5479L1233.03 77.6514L1258.43 121.722L1283.81 77.6582L1283.75 77.5479L1283.68 77.4229L1283.75 77.2979L1283.81 77.1865L1258.43 33.123L1233.03 77.1934ZM821.669 77.5479L796.227 121.706H847.221L847.237 121.675L821.783 77.5088L821.736 77.4277L821.669 77.5479ZM1643.67 77.2979L1643.74 77.4229L1643.67 77.5479L1618.23 121.706H1669.22L1694.71 77.4609L1669.18 33.1475H1618.23L1643.67 77.2979ZM0.288086 77.3838L25.8281 121.698H76.6201L51.1836 77.5479L51.1113 77.4229L51.1836 77.2979L76.625 33.1396H25.7881L0.288086 77.3838ZM847.814 121.675L847.828 121.698H898.62L873.211 77.5957L847.814 121.675ZM154.397 77.4229L179.784 121.486L205.171 77.4229L179.784 33.3584L154.397 77.4229ZM308.457 77.4229L333.853 121.486L359.239 77.4229L333.853 33.3584L308.457 77.4229ZM462.39 77.1855L462.454 77.2979L462.525 77.4229L462.454 77.5479L462.39 77.6592L487.64 121.486L513.035 77.4229L487.64 33.3584L462.39 77.1855ZM513.612 77.4229L538.999 121.486L564.386 77.4229L538.999 33.3584L513.612 77.4229ZM616.321 77.4229L641.708 121.486L667.095 77.4229L641.708 33.3584L616.321 77.4229ZM719.03 77.4229L744.417 121.486L769.804 77.4229L744.417 33.3584L719.03 77.4229ZM976.397 77.4229L1001.78 121.486L1027.17 77.4229L1001.78 33.3584L976.397 77.4229ZM1130.46 77.4229L1155.85 121.486L1181.24 77.4229L1155.85 33.3584L1130.46 77.4229ZM1284.39 77.1855L1284.45 77.2979L1284.53 77.4229L1284.45 77.5479L1284.39 77.6592L1309.64 121.486L1335.04 77.4229L1309.64 33.3584L1284.39 77.1855ZM1335.61 77.4229L1361 121.486L1386.39 77.4229L1361 33.3584L1335.61 77.4229ZM1438.32 77.4229L1463.71 121.486L1489.09 77.4229L1463.71 33.3584L1438.32 77.4229ZM1541.03 77.4229L1566.42 121.486L1591.8 77.4229L1566.42 33.3584L1541.03 77.4229ZM103.038 77.4229L128.434 121.485L153.82 77.4229L128.434 33.3594L103.038 77.4229ZM205.748 77.4229L231.143 121.485L256.53 77.4229L231.143 33.3594L205.748 77.4229ZM257.106 77.4229L282.493 121.485L307.88 77.4229L282.493 33.3594L257.106 77.4229ZM359.816 77.4229L385.203 121.485L410.457 77.6504L410.398 77.5479L410.326 77.4229L410.398 77.2979L410.457 77.1943L385.203 33.3594L359.816 77.4229ZM564.962 77.4229L590.357 121.485L615.744 77.4229L590.357 33.3594L564.962 77.4229ZM667.68 77.4229L693.067 121.485L718.454 77.4229L693.067 33.3594L667.68 77.4229ZM925.038 77.4229L950.434 121.485L975.82 77.4229L950.434 33.3594L925.038 77.4229ZM1027.75 77.4229L1053.14 121.485L1078.53 77.4229L1053.14 33.3594L1027.75 77.4229ZM1079.11 77.4229L1104.49 121.485L1129.88 77.4229L1104.49 33.3594L1079.11 77.4229ZM1181.82 77.4229L1207.2 121.485L1232.46 77.6504L1232.4 77.5479L1232.33 77.4229L1232.4 77.2979L1232.46 77.1943L1207.2 33.3594L1181.82 77.4229ZM1386.96 77.4229L1412.36 121.485L1437.74 77.4229L1412.36 33.3594L1386.96 77.4229ZM1489.68 77.4229L1515.07 121.485L1540.45 77.4229L1515.07 33.3594L1489.68 77.4229ZM51.6885 77.4229L77.043 121.431L102.42 77.3838L77.0654 33.376L51.6885 77.4229ZM873.688 77.4229L899.043 121.431L924.42 77.3838L899.065 33.376L873.688 77.4229ZM770.588 77.4609L795.864 121.333L821.163 77.4229L795.887 33.5498L770.588 77.4609ZM1592.59 77.4609L1617.86 121.333L1643.16 77.4229L1617.89 33.5498L1592.59 77.4609ZM822.288 77.3838L847.526 121.175L872.711 77.4609L847.481 33.6699L822.288 77.3838ZM821.669 77.2979L821.715 77.3789L821.783 77.2598L847.193 33.1689L847.181 33.1475H796.231L821.669 77.2979ZM847.771 33.1699L873.188 77.2881L898.625 33.1396H847.788L847.771 33.1699ZM770.207 77.1201L795.564 33.1084H744.85L770.207 77.1201ZM1592.21 77.1201L1617.56 33.1084H1566.85L1592.21 77.1201ZM102.74 76.9385L128.002 33.1084H77.4893L102.74 76.9385ZM924.74 76.9385L950.002 33.1084H899.489L924.74 76.9385ZM667.388 76.9297L692.635 33.1084H642.141L667.388 76.9297ZM1489.39 76.9297L1514.63 33.1084H1464.14L1489.39 76.9297ZM256.818 76.9219L282.062 33.1084H231.576L256.818 76.9219ZM564.674 76.9219L589.926 33.1084H539.432L564.674 76.9219ZM718.742 76.9219L743.985 33.1084H693.5L718.742 76.9219ZM1078.82 76.9219L1104.06 33.1084H1053.58L1078.82 76.9219ZM1386.67 76.9219L1411.93 33.1084H1361.43L1386.67 76.9219ZM1540.74 76.9219L1565.99 33.1084H1515.5L1540.74 76.9219ZM154.109 76.9209L179.353 33.1084H128.867L154.109 76.9209ZM205.46 76.9209L230.711 33.1084H180.217L205.46 76.9209ZM308.169 76.9209L333.421 33.1084H282.927L308.169 76.9209ZM359.527 76.9209L384.771 33.1084H334.285L359.527 76.9209ZM513.323 76.9209L538.567 33.1084H488.072L513.323 76.9209ZM616.033 76.9209L641.276 33.1084H590.791L616.033 76.9209ZM976.109 76.9209L1001.35 33.1084H950.867L976.109 76.9209ZM1027.46 76.9209L1052.71 33.1084H1002.22L1027.46 76.9209ZM1130.17 76.9209L1155.42 33.1084H1104.93L1130.17 76.9209ZM1181.53 76.9209L1206.77 33.1084H1156.29L1181.53 76.9209ZM1335.32 76.9209L1360.57 33.1084H1310.07L1335.32 76.9209ZM1438.03 76.9209L1463.28 33.1084H1412.79L1438.03 76.9209ZM410.746 76.6934L435.857 33.1084H385.636L410.746 76.6934ZM1232.75 76.6934L1257.86 33.1084H1207.64L1232.75 76.6934ZM462.101 76.6855L487.208 33.1084H436.994L462.101 76.6855ZM1284.1 76.6855L1309.21 33.1084H1258.99L1284.1 76.6855ZM821.669 -11.5801L796.191 32.6396H847.181L847.216 32.5781L821.783 -11.5498L821.717 -11.666L821.669 -11.5801ZM1643.67 -11.8301L1643.74 -11.7051L1643.67 -11.5801L1618.19 32.6396H1669.18L1694.71 -11.6748L1669.18 -55.9883H1618.23L1643.67 -11.8301ZM77.4854 32.6084H128.002L102.738 -11.2256L77.4854 32.6084ZM128.867 32.6084H179.353L154.109 -11.2041L128.867 32.6084ZM180.217 32.6084H230.711L205.46 -11.2041L180.217 32.6084ZM231.576 32.6084H282.062L256.818 -11.2051L231.576 32.6084ZM282.927 32.6084H333.421L308.169 -11.2041L282.927 32.6084ZM334.285 32.6084H384.771L359.527 -11.2041L334.285 32.6084ZM385.636 32.6084H435.857L410.746 -10.9766L385.636 32.6084ZM436.994 32.6084H487.208L462.101 -10.9688L436.994 32.6084ZM488.072 32.6084H538.567L513.323 -11.2041L488.072 32.6084ZM539.432 32.6084H589.926L564.674 -11.2051L539.432 32.6084ZM590.791 32.6084H641.276L616.033 -11.2041L590.791 32.6084ZM642.141 32.6084H692.635L667.388 -11.2129L642.141 32.6084ZM693.5 32.6084H743.985L718.742 -11.2051L693.5 32.6084ZM744.85 32.6084H795.523L770.188 -11.3691L744.85 32.6084ZM899.485 32.6084H950.002L924.738 -11.2256L899.485 32.6084ZM950.867 32.6084H1001.35L976.109 -11.2041L950.867 32.6084ZM1002.22 32.6084H1052.71L1027.46 -11.2041L1002.22 32.6084ZM1053.58 32.6084H1104.06L1078.82 -11.2051L1053.58 32.6084ZM1104.93 32.6084H1155.42L1130.17 -11.2041L1104.93 32.6084ZM1156.29 32.6084H1206.77L1181.53 -11.2041L1156.29 32.6084ZM1207.64 32.6084H1257.86L1232.75 -10.9766L1207.64 32.6084ZM1258.99 32.6084H1309.21L1284.1 -10.9688L1258.99 32.6084ZM1310.07 32.6084H1360.57L1335.32 -11.2041L1310.07 32.6084ZM1361.43 32.6084H1411.93L1386.67 -11.2051L1361.43 32.6084ZM1412.79 32.6084H1463.28L1438.03 -11.2041L1412.79 32.6084ZM1464.14 32.6084H1514.63L1489.39 -11.2129L1464.14 32.6084ZM1515.5 32.6084H1565.99L1540.74 -11.2051L1515.5 32.6084ZM1566.85 32.6084H1617.52L1592.19 -11.3691L1566.85 32.6084ZM411.034 -11.9346L411.095 -11.8301L411.167 -11.7051L411.095 -11.5801L411.034 -11.4766L436.426 32.5938L461.812 -11.4697L461.749 -11.5801L461.677 -11.7051L461.749 -11.8301L461.812 -11.9414L436.426 -56.0049L411.034 -11.9346ZM1233.03 -11.9346L1233.09 -11.8301L1233.17 -11.7051L1233.09 -11.5801L1233.03 -11.4766L1258.43 32.5938L1283.81 -11.4697L1283.75 -11.5801L1283.68 -11.7051L1283.75 -11.8301L1283.81 -11.9414L1258.43 -56.0049L1233.03 -11.9346ZM0.288086 -11.6748L25.7881 32.5703H76.6201L51.1836 -11.5801L51.1113 -11.7051L51.1836 -11.8301L76.624 -55.9883H25.8281L0.288086 -11.6748ZM847.798 32.5703H898.62L873.208 -11.5361L847.798 32.5703ZM154.397 -11.7051L179.784 32.3584L205.171 -11.7051L179.784 -55.7695L154.397 -11.7051ZM308.457 -11.7051L333.853 32.3584L359.239 -11.7051L333.853 -55.7695L308.457 -11.7051ZM462.39 -11.9424L462.454 -11.8301L462.525 -11.7051L462.454 -11.5801L462.39 -11.4688L487.64 32.3584L513.035 -11.7051L487.64 -55.7695L462.39 -11.9424ZM513.612 -11.7051L538.999 32.3584L564.386 -11.7051L538.999 -55.7695L513.612 -11.7051ZM616.321 -11.7051L641.708 32.3584L667.095 -11.7051L641.708 -55.7695L616.321 -11.7051ZM719.03 -11.7051L744.417 32.3584L769.804 -11.7051L744.417 -55.7686L719.03 -11.7051ZM976.397 -11.7051L1001.78 32.3584L1027.17 -11.7051L1001.78 -55.7695L976.397 -11.7051ZM1130.46 -11.7051L1155.85 32.3584L1181.24 -11.7051L1155.85 -55.7695L1130.46 -11.7051ZM1284.39 -11.9424L1284.45 -11.8301L1284.53 -11.7051L1284.45 -11.5801L1284.39 -11.4688L1309.64 32.3584L1335.04 -11.7051L1309.64 -55.7695L1284.39 -11.9424ZM1335.61 -11.7051L1361 32.3584L1386.39 -11.7051L1361 -55.7695L1335.61 -11.7051ZM1438.32 -11.7051L1463.71 32.3584L1489.09 -11.7051L1463.71 -55.7695L1438.32 -11.7051ZM1541.03 -11.7051L1566.42 32.3584L1591.8 -11.7051L1566.42 -55.7686L1541.03 -11.7051ZM103.038 -11.7051L128.434 32.3574L153.82 -11.7051L128.434 -55.7686L103.038 -11.7051ZM205.748 -11.7051L231.143 32.3574L256.53 -11.7051L231.143 -55.7686L205.748 -11.7051ZM257.106 -11.7051L282.493 32.3574L307.88 -11.7051L282.493 -55.7686L257.106 -11.7051ZM359.816 -11.7051L385.203 32.3574L410.457 -11.4775L410.398 -11.5801L410.326 -11.7051L410.398 -11.8301L410.457 -11.9336L385.203 -55.7686L359.816 -11.7051ZM564.962 -11.7051L590.357 32.3574L615.744 -11.7051L590.357 -55.7686L564.962 -11.7051ZM667.68 -11.7051L693.067 32.3574L718.454 -11.7051L693.067 -55.7686L667.68 -11.7051ZM925.038 -11.7051L950.434 32.3574L975.82 -11.7051L950.434 -55.7686L925.038 -11.7051ZM1027.75 -11.7051L1053.14 32.3574L1078.53 -11.7051L1053.14 -55.7686L1027.75 -11.7051ZM1079.11 -11.7051L1104.49 32.3574L1129.88 -11.7051L1104.49 -55.7686L1079.11 -11.7051ZM1181.82 -11.7051L1207.2 32.3574L1232.46 -11.4775L1232.4 -11.5801L1232.33 -11.7051L1232.4 -11.8301L1232.46 -11.9336L1207.2 -55.7686L1181.82 -11.7051ZM1386.96 -11.7051L1412.36 32.3574L1437.74 -11.7051L1412.36 -55.7686L1386.96 -11.7051ZM1489.68 -11.7051L1515.07 32.3574L1540.45 -11.7051L1515.07 -55.7686L1489.68 -11.7051ZM51.6885 -11.7051L77.0625 32.3369L102.42 -11.6748L77.0449 -55.7178L51.6885 -11.7051ZM873.688 -11.7051L899.062 32.3369L924.42 -11.6748L899.045 -55.7178L873.688 -11.7051ZM770.588 -11.6748L795.867 32.2012L821.163 -11.7051L795.885 -55.582L770.588 -11.6748ZM1592.59 -11.6748L1617.87 32.2012L1643.16 -11.7051L1617.88 -55.582L1592.59 -11.6748ZM822.288 -11.6748L847.504 32.0771L872.711 -11.6748L847.504 -55.4268L822.288 -11.6748ZM821.669 -11.8301L821.734 -11.7148L821.783 -11.7998L847.215 -55.9277L847.181 -55.9883H796.228L821.669 -11.8301ZM847.793 -55.9277L873.191 -11.8447L898.624 -55.9883H847.828L847.793 -55.9277ZM770.204 -12.0117L795.56 -56.0195H744.851L770.204 -12.0117ZM1592.2 -12.0117L1617.56 -56.0195H1566.85L1592.2 -12.0117ZM102.721 -12.1553L128.002 -56.0195H77.4492L102.721 -12.1553ZM924.721 -12.1553L950.002 -56.0195H899.449L924.721 -12.1553ZM667.388 -12.1982L692.635 -56.0195H642.141L667.388 -12.1982ZM1489.39 -12.1982L1514.63 -56.0195H1464.14L1489.39 -12.1982ZM256.818 -12.2061L282.062 -56.0195H231.576L256.818 -12.2061ZM564.674 -12.2061L589.926 -56.0195H539.432L564.674 -12.2061ZM718.742 -12.2061L743.985 -56.0195H693.5L718.742 -12.2061ZM1078.82 -12.2061L1104.06 -56.0195H1053.58L1078.82 -12.2061ZM1386.67 -12.2061L1411.93 -56.0195H1361.43L1386.67 -12.2061ZM1540.74 -12.2061L1565.99 -56.0195H1515.5L1540.74 -12.2061ZM154.109 -12.207L179.353 -56.0195H128.867L154.109 -12.207ZM205.46 -12.207L230.711 -56.0195H180.217L205.46 -12.207ZM308.169 -12.207L333.421 -56.0195H282.927L308.169 -12.207ZM359.527 -12.207L384.771 -56.0195H334.285L359.527 -12.207ZM513.323 -12.207L538.567 -56.0195H488.072L513.323 -12.207ZM616.033 -12.207L641.276 -56.0195H590.791L616.033 -12.207ZM976.109 -12.207L1001.35 -56.0195H950.867L976.109 -12.207ZM1027.46 -12.207L1052.71 -56.0195H1002.22L1027.46 -12.207ZM1130.17 -12.207L1155.42 -56.0195H1104.93L1130.17 -12.207ZM1181.53 -12.207L1206.77 -56.0195H1156.29L1181.53 -12.207ZM1335.32 -12.207L1360.57 -56.0195H1310.07L1335.32 -12.207ZM1438.03 -12.207L1463.28 -56.0195H1412.79L1438.03 -12.207ZM410.746 -12.4346L435.857 -56.0195H385.636L410.746 -12.4346ZM1232.75 -12.4346L1257.86 -56.0195H1207.64L1232.75 -12.4346ZM462.101 -12.4424L487.208 -56.0195H436.994L462.101 -12.4424ZM1284.1 -12.4424L1309.21 -56.0195H1258.99L1284.1 -12.4424ZM0.288086 -100.811L25.8281 -56.4961H76.6562L51.1836 -100.709L51.1113 -100.834L51.1836 -100.958L76.6289 -145.124H25.8281L0.288086 -100.811ZM821.669 -100.709L796.195 -56.4961H847.181L847.216 -56.5586L821.783 -100.686L821.719 -100.798L821.669 -100.709ZM847.792 -56.5586L847.828 -56.4961H898.656L873.206 -100.669L847.792 -56.5586ZM1643.67 -100.958L1643.74 -100.834L1643.67 -100.709L1618.2 -56.4961H1669.18L1694.71 -100.811L1669.18 -145.124H1618.22L1643.67 -100.958ZM77.4805 -56.5195H128.002L102.736 -100.358L77.4805 -56.5195ZM128.867 -56.5195H179.353L154.109 -100.333L128.867 -56.5195ZM180.217 -56.5195H230.711L205.46 -100.333L180.217 -56.5195ZM231.576 -56.5195H282.062L256.818 -100.334L231.576 -56.5195ZM282.927 -56.5195H333.421L308.169 -100.333L282.927 -56.5195ZM334.285 -56.5195H384.762L359.523 -100.325L334.285 -56.5195ZM385.636 -56.5195H435.857L410.746 -100.105L385.636 -56.5195ZM436.977 -56.5195H487.208L462.097 -100.105L436.977 -56.5195ZM488.072 -56.5195H538.567L513.323 -100.333L488.072 -56.5195ZM539.432 -56.5195H589.926L564.674 -100.334L539.432 -56.5195ZM590.791 -56.5195H641.268L616.024 -100.318L590.791 -56.5195ZM642.141 -56.5195H692.635L667.388 -100.342L642.141 -56.5195ZM693.482 -56.5195H743.985L718.733 -100.35L693.482 -56.5195ZM744.851 -56.5195H795.528L770.189 -100.501L744.851 -56.5195ZM899.48 -56.5195H950.002L924.736 -100.358L899.48 -56.5195ZM950.867 -56.5195H1001.35L976.109 -100.333L950.867 -56.5195ZM1002.22 -56.5195H1052.71L1027.46 -100.333L1002.22 -56.5195ZM1053.58 -56.5195H1104.06L1078.82 -100.334L1053.58 -56.5195ZM1104.93 -56.5195H1155.42L1130.17 -100.333L1104.93 -56.5195ZM1156.29 -56.5195H1206.76L1181.52 -100.325L1156.29 -56.5195ZM1207.64 -56.5195H1257.86L1232.75 -100.105L1207.64 -56.5195ZM1258.98 -56.5195H1309.21L1284.1 -100.105L1258.98 -56.5195ZM1310.07 -56.5195H1360.57L1335.32 -100.333L1310.07 -56.5195ZM1361.43 -56.5195H1411.93L1386.67 -100.334L1361.43 -56.5195ZM1412.79 -56.5195H1463.27L1438.02 -100.318L1412.79 -56.5195ZM1464.14 -56.5195H1514.63L1489.39 -100.342L1464.14 -56.5195ZM1515.48 -56.5195H1565.99L1540.73 -100.35L1515.48 -56.5195ZM1566.85 -56.5195H1617.53L1592.19 -100.501L1566.85 -56.5195ZM411.034 -101.062L411.095 -100.958L411.167 -100.834L411.095 -100.709L411.034 -100.605L436.417 -56.5498L461.809 -100.606L461.749 -100.709L461.677 -100.834L461.749 -100.958L461.809 -101.062L436.417 -145.118L411.034 -101.062ZM1233.03 -101.062L1233.09 -100.958L1233.17 -100.834L1233.09 -100.709L1233.03 -100.605L1258.42 -56.5498L1283.81 -100.606L1283.75 -100.709L1283.68 -100.834L1283.75 -100.958L1283.81 -101.062L1258.42 -145.118L1233.03 -101.062ZM616.312 -100.85L616.322 -100.834L616.312 -100.818L641.703 -56.7627L667.095 -100.834L641.703 -144.905L616.312 -100.85ZM1438.31 -100.85L1438.32 -100.834L1438.31 -100.818L1463.7 -56.7627L1489.09 -100.834L1463.7 -144.905L1438.31 -100.85ZM359.812 -100.843L359.816 -100.834L359.812 -100.826L385.198 -56.7637L410.458 -100.606L410.398 -100.709L410.326 -100.834L410.398 -100.958L410.458 -101.062L385.198 -144.904L359.812 -100.843ZM1181.81 -100.843L1181.82 -100.834L1181.81 -100.826L1207.2 -56.7637L1232.46 -100.606L1232.4 -100.709L1232.33 -100.834L1232.4 -100.958L1232.46 -101.062L1207.2 -144.904L1181.81 -100.843ZM154.397 -100.834L179.784 -56.7705L205.171 -100.834L179.784 -144.897L154.397 -100.834ZM308.457 -100.834L333.853 -56.7705L359.234 -100.826L359.23 -100.834L359.234 -100.842L333.853 -144.897L308.457 -100.834ZM462.385 -101.062L462.445 -100.958L462.517 -100.834L462.445 -100.709L462.385 -100.605L487.64 -56.7705L513.035 -100.834L487.64 -144.897L462.385 -101.062ZM513.612 -100.834L538.999 -56.7705L564.386 -100.834L538.999 -144.897L513.612 -100.834ZM976.397 -100.834L1001.78 -56.7705L1027.17 -100.834L1001.78 -144.897L976.397 -100.834ZM1130.46 -100.834L1155.85 -56.7705L1181.23 -100.826L1181.23 -100.834L1181.23 -100.842L1155.85 -144.897L1130.46 -100.834ZM1284.38 -101.062L1284.45 -100.958L1284.52 -100.834L1284.45 -100.709L1284.38 -100.605L1309.64 -56.7705L1335.04 -100.834L1309.64 -144.897L1284.38 -101.062ZM1335.61 -100.834L1361 -56.7705L1386.39 -100.834L1361 -144.897L1335.61 -100.834ZM103.038 -100.834L128.434 -56.7715L153.82 -100.834L128.434 -144.896L103.038 -100.834ZM205.748 -100.834L231.143 -56.7715L256.53 -100.834L231.143 -144.896L205.748 -100.834ZM257.106 -100.834L282.493 -56.7715L307.88 -100.834L282.493 -144.896L257.106 -100.834ZM564.962 -100.834L590.357 -56.7715L615.735 -100.819L615.728 -100.834L615.735 -100.849L590.357 -144.896L564.962 -100.834ZM719.03 -100.834L744.417 -56.7715L769.804 -100.834L744.417 -144.896L719.03 -100.834ZM925.038 -100.834L950.434 -56.7715L975.82 -100.834L950.434 -144.896L925.038 -100.834ZM1027.75 -100.834L1053.14 -56.7715L1078.53 -100.834L1053.14 -144.896L1027.75 -100.834ZM1079.11 -100.834L1104.49 -56.7715L1129.88 -100.834L1104.49 -144.896L1079.11 -100.834ZM1386.96 -100.834L1412.36 -56.7715L1437.74 -100.819L1437.73 -100.834L1437.74 -100.849L1412.36 -144.896L1386.96 -100.834ZM1541.03 -100.834L1566.42 -56.7715L1591.8 -100.834L1566.42 -144.896L1541.03 -100.834ZM667.68 -100.834L693.058 -56.7861L718.436 -100.834L693.058 -144.882L667.68 -100.834ZM1489.68 -100.834L1515.06 -56.7861L1540.44 -100.834L1515.06 -144.882L1489.68 -100.834ZM51.6885 -100.834L77.0605 -56.7949L102.42 -100.811L77.0479 -144.85L51.6885 -100.834ZM873.688 -100.834L899.061 -56.7949L924.42 -100.811L899.048 -144.85L873.688 -100.834ZM770.588 -100.811L795.869 -56.9307L821.163 -100.834L795.882 -144.714L770.588 -100.811ZM1592.59 -100.811L1617.87 -56.9307L1643.16 -100.834L1617.88 -144.714L1592.59 -100.811ZM822.288 -100.811L847.504 -57.0586L872.711 -100.811L847.504 -144.562L822.288 -100.811ZM821.669 -100.958L821.732 -100.848L821.783 -100.935L847.216 -145.063L847.181 -145.124H796.223L821.669 -100.958ZM847.792 -145.063L873.193 -100.976L898.629 -145.124H847.828L847.792 -145.063ZM770.202 -101.144L795.542 -145.124H744.864L770.202 -101.144ZM1592.2 -101.144L1617.54 -145.124H1566.86L1592.2 -101.144ZM102.723 -101.286L127.988 -145.124H77.4668L102.723 -101.286ZM924.723 -101.286L949.988 -145.124H899.467L924.723 -101.286ZM718.733 -101.318L743.972 -145.124H693.496L718.733 -101.318ZM1540.73 -101.318L1565.97 -145.124H1515.5L1540.73 -101.318ZM667.388 -101.326L692.621 -145.124H642.154L667.388 -101.326ZM1489.39 -101.326L1514.62 -145.124H1464.15L1489.39 -101.326ZM256.818 -101.334L282.048 -145.124H231.59L256.818 -101.334ZM564.674 -101.334L589.912 -145.124H539.445L564.674 -101.334ZM1078.82 -101.334L1104.05 -145.124H1053.59L1078.82 -101.334ZM1386.67 -101.334L1411.91 -145.124H1361.45L1386.67 -101.334ZM154.109 -101.335L179.339 -145.124H128.881L154.109 -101.335ZM205.46 -101.335L230.697 -145.124H180.23L205.46 -101.335ZM308.169 -101.335L333.407 -145.124H282.94L308.169 -101.335ZM513.323 -101.335L538.554 -145.124H488.086L513.323 -101.335ZM976.109 -101.335L1001.34 -145.124H950.881L976.109 -101.335ZM1027.46 -101.335L1052.7 -145.124H1002.23L1027.46 -101.335ZM1130.17 -101.335L1155.41 -145.124H1104.94L1130.17 -101.335ZM1335.32 -101.335L1360.55 -145.124H1310.09L1335.32 -101.335ZM359.523 -101.343L384.748 -145.124H334.299L359.523 -101.343ZM1181.52 -101.343L1206.75 -145.124H1156.3L1181.52 -101.343ZM616.024 -101.35L641.254 -145.124H590.805L616.024 -101.35ZM1438.02 -101.35L1463.25 -145.124H1412.8L1438.02 -101.35ZM410.746 -101.562L435.844 -145.124H385.649L410.746 -101.562ZM462.097 -101.562L487.194 -145.124H436.99L462.097 -101.562ZM1232.75 -101.562L1257.84 -145.124H1207.65L1232.75 -101.562ZM1284.1 -101.562L1309.19 -145.124H1258.99L1284.1 -101.562ZM77.4629 -145.647H127.988L102.721 -189.49L77.4629 -145.647ZM128.881 -145.647H179.339L154.109 -189.438L128.881 -145.647ZM180.23 -145.647H230.697L205.46 -189.438L180.23 -145.647ZM231.59 -145.647H282.048L256.818 -189.438L231.59 -145.647ZM282.94 -145.647H333.407L308.169 -189.438L282.94 -145.647ZM334.299 -145.647H384.757L359.527 -189.438L334.299 -145.647ZM385.649 -145.647H435.844L410.746 -189.21L385.649 -145.647ZM411.034 -190.168L411.095 -190.063L411.167 -189.938L411.095 -189.813L411.034 -189.71L436.421 -145.647H436.432L461.812 -189.703L461.749 -189.813L461.677 -189.938L461.749 -190.063L461.812 -190.175L436.426 -234.238L411.034 -190.168ZM437.008 -145.647H487.194L462.101 -189.202L437.008 -145.647ZM488.086 -145.647H538.554L513.323 -189.438L488.086 -145.647ZM539.445 -145.647H589.912L564.674 -189.438L539.445 -145.647ZM590.805 -145.647H641.263L616.033 -189.438L590.805 -145.647ZM642.154 -145.647H692.621L667.388 -189.446L642.154 -145.647ZM693.514 -145.647H743.972L718.742 -189.438L693.514 -145.647ZM744.863 -145.647H795.546L770.205 -189.633L744.863 -145.647ZM899.463 -145.647H949.988L924.721 -189.49L899.463 -145.647ZM950.881 -145.647H1001.34L976.109 -189.438L950.881 -145.647ZM1002.23 -145.647H1052.7L1027.46 -189.438L1002.23 -145.647ZM1053.59 -145.647H1104.05L1078.82 -189.438L1053.59 -145.647ZM1104.94 -145.647H1155.41L1130.17 -189.438L1104.94 -145.647ZM1156.3 -145.647H1206.76L1181.53 -189.438L1156.3 -145.647ZM1207.65 -145.647H1257.84L1232.75 -189.21L1207.65 -145.647ZM1233.03 -190.168L1233.09 -190.063L1233.17 -189.938L1233.09 -189.813L1233.03 -189.71L1258.42 -145.647H1258.43L1283.81 -189.703L1283.75 -189.813L1283.68 -189.938L1283.75 -190.063L1283.81 -190.175L1258.43 -234.238L1233.03 -190.168ZM1259.01 -145.647H1309.19L1284.1 -189.202L1259.01 -145.647ZM1310.09 -145.647H1360.55L1335.32 -189.438L1310.09 -145.647ZM1361.45 -145.647H1411.91L1386.67 -189.438L1361.45 -145.647ZM1412.8 -145.647H1463.26L1438.03 -189.438L1412.8 -145.647ZM1464.15 -145.647H1514.62L1489.39 -189.446L1464.15 -145.647ZM1515.51 -145.647H1565.97L1540.74 -189.438L1515.51 -145.647ZM1566.86 -145.647H1617.55L1592.21 -189.633L1566.86 -145.647ZM0.288086 -189.97L25.8281 -145.655H76.624L51.1836 -189.813L51.1113 -189.938L51.1836 -190.063L76.6602 -234.283H25.8281L0.288086 -189.97ZM821.669 -189.813L796.228 -145.655H847.181L847.216 -145.717L821.783 -189.845L821.734 -189.93L821.669 -189.813ZM847.792 -145.717L847.828 -145.655H898.624L873.19 -189.801L847.792 -145.717ZM1643.67 -190.063L1643.74 -189.938L1643.67 -189.813L1618.23 -145.655H1669.18L1694.71 -189.97L1669.22 -234.214H1618.23L1643.67 -190.063ZM154.397 -189.938L179.784 -145.875L205.171 -189.938L179.784 -234.003L154.397 -189.938ZM308.457 -189.938L333.853 -145.875L359.239 -189.938L333.853 -234.003L308.457 -189.938ZM462.39 -190.176L462.454 -190.063L462.525 -189.938L462.454 -189.813L462.39 -189.702L487.64 -145.875L513.035 -189.938L487.64 -234.003L462.39 -190.176ZM513.612 -189.938L538.999 -145.875L564.386 -189.938L538.999 -234.003L513.612 -189.938ZM616.321 -189.938L641.708 -145.875L667.095 -189.938L641.708 -234.003L616.321 -189.938ZM719.03 -189.938L744.417 -145.875L769.804 -189.938L744.417 -234.003L719.03 -189.938ZM976.397 -189.938L1001.78 -145.875L1027.17 -189.938L1001.78 -234.003L976.397 -189.938ZM1130.46 -189.938L1155.85 -145.875L1181.24 -189.938L1155.85 -234.003L1130.46 -189.938ZM1284.39 -190.176L1284.45 -190.063L1284.53 -189.938L1284.45 -189.813L1284.39 -189.702L1309.64 -145.875L1335.04 -189.938L1309.64 -234.003L1284.39 -190.176ZM1335.61 -189.938L1361 -145.875L1386.39 -189.938L1361 -234.003L1335.61 -189.938ZM1438.32 -189.938L1463.71 -145.875L1489.09 -189.938L1463.71 -234.003L1438.32 -189.938ZM1541.03 -189.938L1566.42 -145.875L1591.8 -189.938L1566.42 -234.003L1541.03 -189.938ZM103.038 -189.938L128.434 -145.876L153.82 -189.938L128.434 -234.002L103.038 -189.938ZM205.748 -189.938L231.143 -145.876L256.53 -189.938L231.144 -234.002L205.748 -189.938ZM257.106 -189.938L282.493 -145.876L307.88 -189.938L282.493 -234.002L257.106 -189.938ZM359.816 -189.938L385.203 -145.876L410.457 -189.711L410.398 -189.813L410.326 -189.938L410.398 -190.063L410.457 -190.167L385.203 -234.002L359.816 -189.938ZM564.962 -189.938L590.357 -145.876L615.744 -189.938L590.358 -234.002L564.962 -189.938ZM667.68 -189.938L693.067 -145.876L718.454 -189.938L693.067 -234.002L667.68 -189.938ZM925.038 -189.938L950.434 -145.876L975.82 -189.938L950.434 -234.002L925.038 -189.938ZM1027.75 -189.938L1053.14 -145.876L1078.53 -189.938L1053.14 -234.002L1027.75 -189.938ZM1079.11 -189.938L1104.49 -145.876L1129.88 -189.938L1104.49 -234.002L1079.11 -189.938ZM1181.82 -189.938L1207.2 -145.876L1232.46 -189.711L1232.4 -189.813L1232.33 -189.938L1232.4 -190.063L1232.46 -190.167L1207.2 -234.002L1181.82 -189.938ZM1386.96 -189.938L1412.36 -145.876L1437.74 -189.938L1412.36 -234.002L1386.96 -189.938ZM1489.68 -189.938L1515.07 -145.876L1540.45 -189.938L1515.07 -234.002L1489.68 -189.938ZM51.6885 -189.938L77.0449 -145.927L102.42 -189.97L77.0625 -233.981L51.6885 -189.938ZM873.688 -189.938L899.045 -145.927L924.42 -189.97L899.062 -233.981L873.688 -189.938ZM770.588 -189.97L795.885 -146.062L821.163 -189.938L795.867 -233.846L770.588 -189.97ZM1592.59 -189.97L1617.88 -146.062L1643.16 -189.938L1617.87 -233.846L1592.59 -189.97ZM822.288 -189.97L847.504 -146.218L872.711 -189.97L847.504 -233.722L822.288 -189.97ZM821.669 -190.063L821.717 -189.979L821.783 -190.094L847.211 -234.214H796.231L821.669 -190.063ZM847.793 -234.223L873.208 -190.108L898.66 -234.283H847.828L847.793 -234.223ZM770.188 -190.275L795.523 -234.252H744.85L770.188 -190.275ZM1592.19 -190.275L1617.52 -234.252H1566.85L1592.19 -190.275ZM102.738 -190.419L128.002 -234.252H77.4854L102.738 -190.419ZM924.738 -190.419L950.002 -234.252H899.485L924.738 -190.419ZM667.388 -190.432L692.635 -234.252H642.141L667.388 -190.432ZM1489.39 -190.432L1514.63 -234.252H1464.14L1489.39 -190.432ZM256.818 -190.439L282.062 -234.252H231.576L256.818 -190.439ZM564.674 -190.439L589.926 -234.252H539.432L564.674 -190.439ZM718.742 -190.439L743.985 -234.252H693.5L718.742 -190.439ZM1078.82 -190.439L1104.06 -234.252H1053.58L1078.82 -190.439ZM1386.67 -190.439L1411.93 -234.252H1361.43L1386.67 -190.439ZM1540.74 -190.439L1565.99 -234.252H1515.5L1540.74 -190.439ZM154.109 -190.44L179.353 -234.252H128.867L154.109 -190.44ZM205.46 -190.44L230.711 -234.252H180.217L205.46 -190.44ZM308.169 -190.44L333.421 -234.252H282.927L308.169 -190.44ZM359.527 -190.44L384.771 -234.252H334.285L359.527 -190.44ZM513.323 -190.44L538.567 -234.252H488.072L513.323 -190.44ZM616.033 -190.44L641.276 -234.252H590.791L616.033 -190.44ZM976.109 -190.44L1001.35 -234.252H950.867L976.109 -190.44ZM1027.46 -190.44L1052.71 -234.252H1002.22L1027.46 -190.44ZM1130.17 -190.44L1155.42 -234.252H1104.93L1130.17 -190.44ZM1181.53 -190.44L1206.77 -234.252H1156.29L1181.53 -190.44ZM1335.32 -190.44L1360.57 -234.252H1310.07L1335.32 -190.44ZM1438.03 -190.44L1463.28 -234.252H1412.79L1438.03 -190.44ZM410.746 -190.668L435.857 -234.252H385.636L410.746 -190.668ZM1232.75 -190.668L1257.86 -234.252H1207.64L1232.75 -190.668ZM462.101 -190.676L487.208 -234.252H436.994L462.101 -190.676ZM1284.1 -190.676L1309.21 -234.252H1258.99L1284.1 -190.676ZM77.4443 -234.752H128.002L102.719 -278.622L77.4443 -234.752ZM128.867 -234.752H179.353L154.109 -278.565L128.867 -234.752ZM180.217 -234.752H230.711L205.46 -278.565L180.217 -234.752ZM231.576 -234.752H282.062L256.818 -278.566L231.576 -234.752ZM282.927 -234.752H333.421L308.169 -278.565L282.927 -234.752ZM334.285 -234.752H384.771L359.527 -278.565L334.285 -234.752ZM385.636 -234.752H435.857L410.746 -278.338L385.636 -234.752ZM436.994 -234.752H487.208L462.101 -278.33L436.994 -234.752ZM488.072 -234.752H538.567L513.323 -278.565L488.072 -234.752ZM539.432 -234.752H589.926L564.674 -278.566L539.432 -234.752ZM590.791 -234.752H641.276L616.033 -278.565L590.791 -234.752ZM642.141 -234.752H692.635L667.388 -278.574L642.141 -234.752ZM693.5 -234.752H743.985L718.742 -278.566L693.5 -234.752ZM744.85 -234.752H795.52L770.185 -278.727L744.85 -234.752ZM899.444 -234.752H950.002L924.719 -278.622L899.444 -234.752ZM950.867 -234.752H1001.35L976.109 -278.565L950.867 -234.752ZM1002.22 -234.752H1052.71L1027.46 -278.565L1002.22 -234.752ZM1053.58 -234.752H1104.06L1078.82 -278.566L1053.58 -234.752ZM1104.93 -234.752H1155.42L1130.17 -278.565L1104.93 -234.752ZM1156.29 -234.752H1206.77L1181.53 -278.565L1156.29 -234.752ZM1207.64 -234.752H1257.86L1232.75 -278.338L1207.64 -234.752ZM1258.99 -234.752H1309.21L1284.1 -278.33L1258.99 -234.752ZM1310.07 -234.752H1360.57L1335.32 -278.565L1310.07 -234.752ZM1361.43 -234.752H1411.93L1386.67 -278.566L1361.43 -234.752ZM1412.79 -234.752H1463.28L1438.03 -278.565L1412.79 -234.752ZM1464.14 -234.752H1514.63L1489.39 -278.574L1464.14 -234.752ZM1515.5 -234.752H1565.99L1540.74 -278.566L1515.5 -234.752ZM1566.85 -234.752H1617.52L1592.18 -278.727L1566.85 -234.752ZM411.034 -279.296L411.095 -279.191L411.167 -279.066L411.095 -278.941L411.034 -278.838L436.426 -234.768L461.812 -278.831L461.749 -278.941L461.677 -279.066L461.749 -279.191L461.812 -279.303L436.426 -323.366L411.034 -279.296ZM1233.03 -279.296L1233.09 -279.191L1233.17 -279.066L1233.09 -278.941L1233.03 -278.838L1258.43 -234.768L1283.81 -278.831L1283.75 -278.941L1283.68 -279.066L1283.75 -279.191L1283.81 -279.303L1258.43 -323.366L1233.03 -279.296ZM821.669 -278.941L796.227 -234.783H847.221L847.237 -234.814L821.783 -278.98L821.736 -279.062L821.669 -278.941ZM1643.67 -279.191L1643.74 -279.066L1643.67 -278.941L1618.23 -234.783H1669.22L1694.71 -279.028L1669.18 -323.342H1618.23L1643.67 -279.191ZM0.288086 -279.105L25.8281 -234.791H76.6201L51.1836 -278.941L51.1113 -279.066L51.1836 -279.191L76.625 -323.35H25.7881L0.288086 -279.105ZM847.814 -234.814L847.828 -234.791H898.62L873.211 -278.894L847.814 -234.814ZM154.397 -279.066L179.784 -235.003L205.171 -279.066L179.784 -323.131L154.397 -279.066ZM308.457 -279.066L333.853 -235.003L359.239 -279.066L333.853 -323.131L308.457 -279.066ZM462.39 -279.304L462.454 -279.191L462.525 -279.066L462.454 -278.941L462.39 -278.83L487.64 -235.003L513.035 -279.066L487.64 -323.131L462.39 -279.304ZM513.612 -279.066L538.999 -235.003L564.386 -279.066L538.999 -323.131L513.612 -279.066ZM616.321 -279.066L641.708 -235.003L667.095 -279.066L641.708 -323.131L616.321 -279.066ZM719.03 -279.066L744.417 -235.003L769.804 -279.066L744.417 -323.131L719.03 -279.066ZM976.397 -279.066L1001.78 -235.003L1027.17 -279.066L1001.78 -323.131L976.397 -279.066ZM1130.46 -279.066L1155.85 -235.003L1181.24 -279.066L1155.85 -323.131L1130.46 -279.066ZM1284.39 -279.304L1284.45 -279.191L1284.53 -279.066L1284.45 -278.941L1284.39 -278.83L1309.64 -235.003L1335.04 -279.066L1309.64 -323.131L1284.39 -279.304ZM1335.61 -279.066L1361 -235.003L1386.39 -279.066L1361 -323.131L1335.61 -279.066ZM1438.32 -279.066L1463.71 -235.003L1489.09 -279.066L1463.71 -323.131L1438.32 -279.066ZM1541.03 -279.066L1566.42 -235.003L1591.8 -279.066L1566.42 -323.131L1541.03 -279.066ZM103.038 -279.066L128.434 -235.004L153.82 -279.066L128.434 -323.13L103.038 -279.066ZM205.748 -279.066L231.143 -235.004L256.53 -279.066L231.143 -323.13L205.748 -279.066ZM257.106 -279.066L282.493 -235.004L307.88 -279.066L282.493 -323.13L257.106 -279.066ZM359.816 -279.066L385.203 -235.004L410.457 -278.839L410.398 -278.941L410.326 -279.066L410.398 -279.191L410.457 -279.295L385.203 -323.13L359.816 -279.066ZM564.962 -279.066L590.357 -235.004L615.744 -279.066L590.357 -323.13L564.962 -279.066ZM667.68 -279.066L693.067 -235.004L718.454 -279.066L693.067 -323.13L667.68 -279.066ZM925.038 -279.066L950.434 -235.004L975.82 -279.066L950.434 -323.13L925.038 -279.066ZM1027.75 -279.066L1053.14 -235.004L1078.53 -279.066L1053.14 -323.13L1027.75 -279.066ZM1079.11 -279.066L1104.49 -235.004L1129.88 -279.066L1104.49 -323.13L1079.11 -279.066ZM1181.82 -279.066L1207.2 -235.004L1232.46 -278.839L1232.4 -278.941L1232.33 -279.066L1232.4 -279.191L1232.46 -279.295L1207.2 -323.13L1181.82 -279.066ZM1386.96 -279.066L1412.36 -235.004L1437.74 -279.066L1412.36 -323.13L1386.96 -279.066ZM1489.68 -279.066L1515.07 -235.004L1540.45 -279.066L1515.07 -323.13L1489.68 -279.066ZM51.6885 -279.066L77.043 -235.059L102.42 -279.105L77.0654 -323.113L51.6885 -279.066ZM873.688 -279.066L899.043 -235.059L924.42 -279.105L899.065 -323.113L873.688 -279.066ZM770.588 -279.028L795.864 -235.156L821.163 -279.066L795.887 -322.939L770.588 -279.028ZM1592.59 -279.028L1617.86 -235.156L1643.16 -279.066L1617.89 -322.939L1592.59 -279.028ZM822.288 -279.105L847.526 -235.314L872.711 -279.028L847.481 -322.819L822.288 -279.105ZM821.669 -279.191L821.715 -279.11L821.783 -279.229L847.193 -323.32L847.181 -323.342H796.231L821.669 -279.191ZM847.771 -323.319L873.188 -279.201L898.625 -323.35H847.788L847.771 -323.319ZM770.207 -279.369L795.564 -323.381H744.85L770.207 -279.369ZM1592.21 -279.369L1617.56 -323.381H1566.85L1592.21 -279.369ZM102.74 -279.551L128.002 -323.381H77.4893L102.74 -279.551ZM924.74 -279.551L950.002 -323.381H899.489L924.74 -279.551ZM667.388 -279.56L692.635 -323.381H642.141L667.388 -279.56ZM1489.39 -279.56L1514.63 -323.381H1464.14L1489.39 -279.56ZM256.818 -279.567L282.062 -323.381H231.576L256.818 -279.567ZM564.674 -279.567L589.926 -323.381H539.432L564.674 -279.567ZM718.742 -279.567L743.985 -323.381H693.5L718.742 -279.567ZM1078.82 -279.567L1104.06 -323.381H1053.58L1078.82 -279.567ZM1386.67 -279.567L1411.93 -323.381H1361.43L1386.67 -279.567ZM1540.74 -279.567L1565.99 -323.381H1515.5L1540.74 -279.567ZM154.109 -279.568L179.353 -323.381H128.867L154.109 -279.568ZM205.46 -279.568L230.711 -323.381H180.217L205.46 -279.568ZM308.169 -279.568L333.421 -323.381H282.927L308.169 -279.568ZM359.527 -279.568L384.771 -323.381H334.285L359.527 -279.568ZM513.323 -279.568L538.567 -323.381H488.072L513.323 -279.568ZM616.033 -279.568L641.276 -323.381H590.791L616.033 -279.568ZM976.109 -279.568L1001.35 -323.381H950.867L976.109 -279.568ZM1027.46 -279.568L1052.71 -323.381H1002.22L1027.46 -279.568ZM1130.17 -279.568L1155.42 -323.381H1104.93L1130.17 -279.568ZM1181.53 -279.568L1206.77 -323.381H1156.29L1181.53 -279.568ZM1335.32 -279.568L1360.57 -323.381H1310.07L1335.32 -279.568ZM1438.03 -279.568L1463.28 -323.381H1412.79L1438.03 -279.568ZM410.746 -279.796L435.857 -323.381H385.636L410.746 -279.796ZM1232.75 -279.796L1257.86 -323.381H1207.64L1232.75 -279.796ZM462.101 -279.804L487.208 -323.381H436.994L462.101 -279.804ZM1284.1 -279.804L1309.21 -323.381H1258.99L1284.1 -279.804ZM821.669 -368.069L796.191 -323.85H847.181L847.216 -323.911L821.783 -368.039L821.717 -368.155L821.669 -368.069ZM1643.67 -368.319L1643.74 -368.194L1643.67 -368.069L1618.19 -323.85H1669.18L1694.71 -368.164L1669.18 -412.478H1618.23L1643.67 -368.319ZM77.4854 -323.881H128.002L102.738 -367.715L77.4854 -323.881ZM128.867 -323.881H179.353L154.109 -367.693L128.867 -323.881ZM180.217 -323.881H230.711L205.46 -367.693L180.217 -323.881ZM231.576 -323.881H282.062L256.818 -367.694L231.576 -323.881ZM282.927 -323.881H333.421L308.169 -367.693L282.927 -323.881ZM334.285 -323.881H384.771L359.527 -367.693L334.285 -323.881ZM385.636 -323.881H435.857L410.746 -367.466L385.636 -323.881ZM436.994 -323.881H487.208L462.101 -367.458L436.994 -323.881ZM488.072 -323.881H538.567L513.323 -367.693L488.072 -323.881ZM539.432 -323.881H589.926L564.674 -367.694L539.432 -323.881ZM590.791 -323.881H641.276L616.033 -367.693L590.791 -323.881ZM642.141 -323.881H692.635L667.388 -367.702L642.141 -323.881ZM693.5 -323.881H743.985L718.742 -367.694L693.5 -323.881ZM744.85 -323.881H795.523L770.188 -367.858L744.85 -323.881ZM899.485 -323.881H950.002L924.738 -367.715L899.485 -323.881ZM950.867 -323.881H1001.35L976.109 -367.693L950.867 -323.881ZM1002.22 -323.881H1052.71L1027.46 -367.693L1002.22 -323.881ZM1053.58 -323.881H1104.06L1078.82 -367.694L1053.58 -323.881ZM1104.93 -323.881H1155.42L1130.17 -367.693L1104.93 -323.881ZM1156.29 -323.881H1206.77L1181.53 -367.693L1156.29 -323.881ZM1207.64 -323.881H1257.86L1232.75 -367.466L1207.64 -323.881ZM1258.99 -323.881H1309.21L1284.1 -367.458L1258.99 -323.881ZM1310.07 -323.881H1360.57L1335.32 -367.693L1310.07 -323.881ZM1361.43 -323.881H1411.93L1386.67 -367.694L1361.43 -323.881ZM1412.79 -323.881H1463.28L1438.03 -367.693L1412.79 -323.881ZM1464.14 -323.881H1514.63L1489.39 -367.702L1464.14 -323.881ZM1515.5 -323.881H1565.99L1540.74 -367.694L1515.5 -323.881ZM1566.85 -323.881H1617.52L1592.19 -367.858L1566.85 -323.881ZM411.034 -368.424L411.095 -368.319L411.167 -368.194L411.095 -368.069L411.034 -367.966L436.426 -323.896L461.812 -367.959L461.749 -368.069L461.677 -368.194L461.749 -368.319L461.812 -368.431L436.426 -412.494L411.034 -368.424ZM1233.03 -368.424L1233.09 -368.319L1233.17 -368.194L1233.09 -368.069L1233.03 -367.966L1258.43 -323.896L1283.81 -367.959L1283.75 -368.069L1283.68 -368.194L1283.75 -368.319L1283.81 -368.431L1258.43 -412.494L1233.03 -368.424ZM0.288086 -368.164L25.7881 -323.919H76.6201L51.1836 -368.069L51.1113 -368.194L51.1836 -368.319L76.624 -412.478H25.8281L0.288086 -368.164ZM847.798 -323.919H898.62L873.208 -368.025L847.798 -323.919ZM154.397 -368.194L179.784 -324.131L205.171 -368.194L179.784 -412.259L154.397 -368.194ZM308.457 -368.195L333.853 -324.131L359.239 -368.194L333.853 -412.259L308.457 -368.195ZM462.39 -368.432L462.454 -368.319L462.525 -368.194L462.454 -368.069L462.39 -367.958L487.64 -324.131L513.035 -368.195L487.64 -412.259L462.39 -368.432ZM513.612 -368.194L538.999 -324.131L564.386 -368.194L538.999 -412.259L513.612 -368.194ZM616.321 -368.194L641.708 -324.131L667.095 -368.194L641.708 -412.259L616.321 -368.194ZM719.03 -368.194L744.417 -324.131L769.804 -368.194L744.417 -412.258L719.03 -368.194ZM976.397 -368.194L1001.78 -324.131L1027.17 -368.194L1001.78 -412.259L976.397 -368.194ZM1130.46 -368.195L1155.85 -324.131L1181.24 -368.194L1155.85 -412.259L1130.46 -368.195ZM1284.39 -368.432L1284.45 -368.319L1284.53 -368.194L1284.45 -368.069L1284.39 -367.958L1309.64 -324.131L1335.04 -368.195L1309.64 -412.259L1284.39 -368.432ZM1335.61 -368.194L1361 -324.131L1386.39 -368.194L1361 -412.259L1335.61 -368.194ZM1438.32 -368.194L1463.71 -324.131L1489.09 -368.194L1463.71 -412.259L1438.32 -368.194ZM1541.03 -368.194L1566.42 -324.131L1591.8 -368.194L1566.42 -412.258L1541.03 -368.194ZM103.038 -368.195L128.435 -324.132L153.82 -368.194L128.434 -412.258L103.038 -368.195ZM205.748 -368.195L231.144 -324.132L256.53 -368.194L231.143 -412.258L205.748 -368.195ZM257.106 -368.194L282.493 -324.132L307.88 -368.194L282.493 -412.258L257.106 -368.194ZM359.816 -368.194L385.203 -324.132L410.457 -367.967L410.398 -368.069L410.326 -368.194L410.398 -368.319L410.457 -368.423L385.203 -412.258L359.816 -368.194ZM564.962 -368.195L590.358 -324.132L615.744 -368.194L590.357 -412.258L564.962 -368.195ZM667.68 -368.194L693.067 -324.132L718.454 -368.194L693.067 -412.258L667.68 -368.194ZM925.038 -368.195L950.435 -324.132L975.82 -368.194L950.434 -412.258L925.038 -368.195ZM1027.75 -368.195L1053.14 -324.132L1078.53 -368.194L1053.14 -412.258L1027.75 -368.195ZM1079.11 -368.194L1104.49 -324.132L1129.88 -368.194L1104.49 -412.258L1079.11 -368.194ZM1181.82 -368.194L1207.2 -324.132L1232.46 -367.967L1232.4 -368.069L1232.33 -368.194L1232.4 -368.319L1232.46 -368.423L1207.2 -412.258L1181.82 -368.194ZM1386.96 -368.195L1412.36 -324.132L1437.74 -368.194L1412.36 -412.258L1386.96 -368.195ZM1489.68 -368.194L1515.07 -324.132L1540.45 -368.194L1515.07 -412.258L1489.68 -368.194ZM51.6885 -368.194L77.0625 -324.152L102.42 -368.164L77.0449 -412.207L51.6885 -368.194ZM873.688 -368.194L899.062 -324.152L924.42 -368.164L899.045 -412.207L873.688 -368.194ZM770.588 -368.164L795.867 -324.288L821.163 -368.194L795.885 -412.071L770.588 -368.164ZM1592.59 -368.164L1617.87 -324.288L1643.16 -368.194L1617.88 -412.071L1592.59 -368.164ZM822.288 -368.164L847.504 -324.412L872.711 -368.164L847.504 -411.916L822.288 -368.164ZM821.669 -368.319L821.734 -368.204L821.783 -368.288L847.216 -412.417L847.181 -412.478H796.228L821.669 -368.319ZM847.792 -412.417L873.19 -368.333L898.624 -412.478H847.828L847.792 -412.417ZM770.205 -368.501L795.56 -412.509H744.851L770.205 -368.501ZM1592.21 -368.501L1617.56 -412.509H1566.85L1592.21 -368.501ZM102.721 -368.644L128.002 -412.509H77.4492L102.721 -368.644ZM924.721 -368.644L950.002 -412.509H899.449L924.721 -368.644ZM667.388 -368.688L692.635 -412.509H642.141L667.388 -368.688ZM1489.39 -368.688L1514.63 -412.509H1464.14L1489.39 -368.688ZM256.818 -368.695L282.062 -412.509H231.576L256.818 -368.695ZM564.674 -368.695L589.926 -412.509H539.432L564.674 -368.695ZM718.742 -368.695L743.985 -412.509H693.5L718.742 -368.695ZM1078.82 -368.695L1104.06 -412.509H1053.58L1078.82 -368.695ZM1386.67 -368.695L1411.93 -412.509H1361.43L1386.67 -368.695ZM1540.74 -368.695L1565.99 -412.509H1515.5L1540.74 -368.695ZM154.109 -368.696L179.353 -412.509H128.867L154.109 -368.696ZM205.46 -368.696L230.711 -412.509H180.217L205.46 -368.696ZM308.169 -368.696L333.421 -412.509H282.927L308.169 -368.696ZM359.527 -368.696L384.771 -412.509H334.285L359.527 -368.696ZM513.323 -368.696L538.567 -412.509H488.072L513.323 -368.696ZM616.033 -368.696L641.276 -412.509H590.791L616.033 -368.696ZM976.109 -368.696L1001.35 -412.509H950.867L976.109 -368.696ZM1027.46 -368.696L1052.71 -412.509H1002.22L1027.46 -368.696ZM1130.17 -368.696L1155.42 -412.509H1104.93L1130.17 -368.696ZM1181.53 -368.696L1206.77 -412.509H1156.29L1181.53 -368.696ZM1335.32 -368.696L1360.57 -412.509H1310.07L1335.32 -368.696ZM1438.03 -368.696L1463.28 -412.509H1412.79L1438.03 -368.696ZM410.746 -368.924L435.857 -412.509H385.636L410.746 -368.924ZM1232.75 -368.924L1257.86 -412.509H1207.64L1232.75 -368.924ZM462.101 -368.932L487.208 -412.509H436.994L462.101 -368.932ZM1284.1 -368.932L1309.21 -412.509H1258.99L1284.1 -368.932ZM0.288086 -457.3L25.8281 -412.985H76.6562L51.1836 -457.198L51.1113 -457.322L51.1836 -457.447L76.6289 -501.613H25.8281L0.288086 -457.3ZM821.669 -457.198L796.195 -412.985H847.181L847.216 -413.047L821.783 -457.175L821.719 -457.287L821.669 -457.198ZM847.792 -413.047L847.828 -412.985H898.656L873.206 -457.158L847.792 -413.047ZM1643.67 -457.447L1643.74 -457.322L1643.67 -457.198L1618.2 -412.985H1669.18L1694.71 -457.3L1669.18 -501.613H1618.22L1643.67 -457.447ZM77.4805 -413.009H128.002L102.736 -456.848L77.4805 -413.009ZM128.867 -413.009H179.353L154.109 -456.822L128.867 -413.009ZM180.217 -413.009H230.711L205.46 -456.822L180.217 -413.009ZM231.576 -413.009H282.062L256.818 -456.823L231.576 -413.009ZM282.927 -413.009H333.421L308.169 -456.822L282.927 -413.009ZM334.285 -413.009H384.762L359.523 -456.814L334.285 -413.009ZM385.636 -413.009H435.857L410.746 -456.595L385.636 -413.009ZM436.977 -413.009H487.208L462.097 -456.595L436.977 -413.009ZM488.072 -413.009H538.567L513.323 -456.822L488.072 -413.009ZM539.432 -413.009H589.926L564.674 -456.823L539.432 -413.009ZM590.791 -413.009H641.268L616.024 -456.808L590.791 -413.009ZM642.141 -413.009H692.635L667.388 -456.831L642.141 -413.009ZM693.482 -413.009H743.985L718.733 -456.839L693.482 -413.009ZM744.851 -413.009H795.528L770.189 -456.99L744.851 -413.009ZM899.48 -413.009H950.002L924.736 -456.848L899.48 -413.009ZM950.867 -413.009H1001.35L976.109 -456.822L950.867 -413.009ZM1002.22 -413.009H1052.71L1027.46 -456.822L1002.22 -413.009ZM1053.58 -413.009H1104.06L1078.82 -456.823L1053.58 -413.009ZM1104.93 -413.009H1155.42L1130.17 -456.822L1104.93 -413.009ZM1156.29 -413.009H1206.76L1181.52 -456.814L1156.29 -413.009ZM1207.64 -413.009H1257.86L1232.75 -456.595L1207.64 -413.009ZM1258.98 -413.009H1309.21L1284.1 -456.595L1258.98 -413.009ZM1310.07 -413.009H1360.57L1335.32 -456.822L1310.07 -413.009ZM1361.43 -413.009H1411.93L1386.67 -456.823L1361.43 -413.009ZM1412.79 -413.009H1463.27L1438.02 -456.808L1412.79 -413.009ZM1464.14 -413.009H1514.63L1489.39 -456.831L1464.14 -413.009ZM1515.48 -413.009H1565.99L1540.73 -456.839L1515.48 -413.009ZM1566.85 -413.009H1617.53L1592.19 -456.99L1566.85 -413.009ZM411.034 -457.552L411.095 -457.447L411.167 -457.322L411.095 -457.198L411.034 -457.095L436.417 -413.039L461.809 -457.096L461.749 -457.198L461.677 -457.322L461.749 -457.447L461.809 -457.551L436.417 -501.607L411.034 -457.552ZM1233.03 -457.552L1233.09 -457.447L1233.17 -457.322L1233.09 -457.198L1233.03 -457.095L1258.42 -413.039L1283.81 -457.096L1283.75 -457.198L1283.68 -457.322L1283.75 -457.447L1283.81 -457.551L1258.42 -501.607L1233.03 -457.552ZM616.312 -457.339L616.322 -457.322L616.312 -457.308L641.703 -413.252L667.095 -457.323L641.703 -501.395L616.312 -457.339ZM1438.31 -457.339L1438.32 -457.322L1438.31 -457.308L1463.7 -413.252L1489.09 -457.323L1463.7 -501.395L1438.31 -457.339ZM359.812 -457.331L359.816 -457.322L359.812 -457.314L385.198 -413.253L410.458 -457.096L410.398 -457.198L410.326 -457.322L410.398 -457.447L410.458 -457.551L385.198 -501.394L359.812 -457.331ZM1181.81 -457.331L1181.82 -457.322L1181.81 -457.314L1207.2 -413.253L1232.46 -457.096L1232.4 -457.198L1232.33 -457.322L1232.4 -457.447L1232.46 -457.551L1207.2 -501.394L1181.81 -457.331ZM154.397 -457.323L179.784 -413.26L205.171 -457.323L179.784 -501.387L154.397 -457.323ZM308.457 -457.323L333.853 -413.26L359.234 -457.315L359.23 -457.322L359.234 -457.331L333.853 -501.387L308.457 -457.323ZM462.385 -457.552L462.445 -457.447L462.517 -457.322L462.445 -457.198L462.385 -457.095L487.64 -413.26L513.035 -457.323L487.64 -501.387L462.385 -457.552ZM513.612 -457.323L538.999 -413.26L564.386 -457.323L538.999 -501.387L513.612 -457.323ZM976.397 -457.323L1001.78 -413.26L1027.17 -457.323L1001.78 -501.387L976.397 -457.323ZM1130.46 -457.323L1155.85 -413.26L1181.23 -457.315L1181.23 -457.322L1181.23 -457.331L1155.85 -501.387L1130.46 -457.323ZM1284.38 -457.552L1284.45 -457.447L1284.52 -457.322L1284.45 -457.198L1284.38 -457.095L1309.64 -413.26L1335.04 -457.323L1309.64 -501.387L1284.38 -457.552ZM1335.61 -457.323L1361 -413.26L1386.39 -457.323L1361 -501.387L1335.61 -457.323ZM103.038 -457.323L128.434 -413.261L153.82 -457.323L128.434 -501.386L103.038 -457.323ZM205.748 -457.323L231.143 -413.261L256.53 -457.323L231.143 -501.386L205.748 -457.323ZM257.106 -457.323L282.493 -413.261L307.88 -457.323L282.493 -501.386L257.106 -457.323ZM564.962 -457.323L590.357 -413.261L615.735 -457.309L615.728 -457.322L615.735 -457.338L590.357 -501.386L564.962 -457.323ZM719.03 -457.323L744.417 -413.261L769.804 -457.323L744.417 -501.386L719.03 -457.323ZM925.038 -457.323L950.434 -413.261L975.82 -457.323L950.434 -501.386L925.038 -457.323ZM1027.75 -457.323L1053.14 -413.261L1078.53 -457.323L1053.14 -501.386L1027.75 -457.323ZM1079.11 -457.323L1104.49 -413.261L1129.88 -457.323L1104.49 -501.386L1079.11 -457.323ZM1386.96 -457.323L1412.36 -413.261L1437.74 -457.309L1437.73 -457.322L1437.74 -457.338L1412.36 -501.386L1386.96 -457.323ZM1541.03 -457.323L1566.42 -413.261L1591.8 -457.323L1566.42 -501.386L1541.03 -457.323ZM667.68 -457.323L693.058 -413.275L718.436 -457.323L693.058 -501.371L667.68 -457.323ZM1489.68 -457.323L1515.06 -413.275L1540.44 -457.323L1515.06 -501.371L1489.68 -457.323ZM51.6885 -457.323L77.0605 -413.284L102.42 -457.3L77.0479 -501.339L51.6885 -457.323ZM873.688 -457.323L899.061 -413.284L924.42 -457.3L899.048 -501.339L873.688 -457.323ZM770.588 -457.3L795.869 -413.42L821.163 -457.323L795.882 -501.203L770.588 -457.3ZM1592.59 -457.3L1617.87 -413.42L1643.16 -457.323L1617.88 -501.203L1592.59 -457.3ZM822.288 -457.3L847.504 -413.548L872.711 -457.3L847.504 -501.052L822.288 -457.3ZM821.669 -457.447L821.732 -457.336L821.783 -457.424L847.216 -501.552L847.181 -501.613H796.223L821.669 -457.447ZM847.793 -501.553L873.193 -457.465L898.629 -501.613H847.828L847.793 -501.553ZM770.202 -457.633L795.556 -501.637H744.851L770.202 -457.633ZM1592.2 -457.633L1617.56 -501.637H1566.85L1592.2 -457.633ZM102.723 -457.775L128.002 -501.637H77.4531L102.723 -457.775ZM924.723 -457.775L950.002 -501.637H899.453L924.723 -457.775ZM718.733 -457.808L743.985 -501.637H693.482L718.733 -457.808ZM1540.73 -457.808L1565.99 -501.637H1515.48L1540.73 -457.808ZM667.388 -457.815L692.635 -501.637H642.141L667.388 -457.815ZM1489.39 -457.815L1514.63 -501.637H1464.14L1489.39 -457.815ZM256.818 -457.823L282.062 -501.637H231.576L256.818 -457.823ZM564.674 -457.823L589.926 -501.637H539.432L564.674 -457.823ZM1078.82 -457.823L1104.06 -501.637H1053.58L1078.82 -457.823ZM1386.67 -457.823L1411.93 -501.637H1361.43L1386.67 -457.823ZM154.109 -457.824L179.353 -501.637H128.867L154.109 -457.824ZM205.46 -457.824L230.711 -501.637H180.217L205.46 -457.824ZM308.169 -457.824L333.421 -501.637H282.927L308.169 -457.824ZM513.323 -457.824L538.567 -501.637H488.072L513.323 -457.824ZM976.109 -457.824L1001.35 -501.637H950.867L976.109 -457.824ZM1027.46 -457.824L1052.71 -501.637H1002.22L1027.46 -457.824ZM1130.17 -457.824L1155.42 -501.637H1104.93L1130.17 -457.824ZM1335.32 -457.824L1360.57 -501.637H1310.07L1335.32 -457.824ZM359.523 -457.832L384.762 -501.637H334.285L359.523 -457.832ZM1181.52 -457.832L1206.76 -501.637H1156.29L1181.52 -457.832ZM616.024 -457.839L641.268 -501.637H590.791L616.024 -457.839ZM1438.02 -457.839L1463.27 -501.637H1412.79L1438.02 -457.839ZM410.746 -458.052L435.857 -501.637H385.636L410.746 -458.052ZM462.097 -458.052L487.208 -501.637H436.977L462.097 -458.052ZM1232.75 -458.052L1257.86 -501.637H1207.64L1232.75 -458.052ZM1284.1 -458.052L1309.21 -501.637H1258.98L1284.1 -458.052Z" fill="url(#paint0_radial_2122_8330)" fill-opacity="0.6"/>
</g>
<defs>
<radialGradient id="paint0_radial_2122_8330" cx="0" cy="0" r="1" gradientUnits="userSpaceOnUse" gradientTransform="translate(847.5 -100.83) rotate(90) scale(401.307 847.789)">
<stop/>
<stop offset="1" stop-opacity="0"/>
</radialGradient>
<clipPath id="clip0_2122_8330">
<rect width="1440" height="300" fill="white"/>
</clipPath>
</defs>
</svg>
