<svg xmlns="http://www.w3.org/2000/svg" viewBox="0 0 129 129"><defs><style>.cls-1{fill:#e52e4e;}.cls-2{fill:#fff;}</style></defs><g id="Layer_2" data-name="Layer 2"><g id="Layer_1-2" data-name="Layer 1"><rect class="cls-1" width="129" height="129" rx="13.64"/><path class="cls-2" d="M118.44,62.53A3.8,3.8,0,0,1,114.59,56l-1-1.64a3.8,3.8,0,0,1-3.85-6.55l-1-1.64A3.8,3.8,0,0,1,105,39.6L104,38a3.8,3.8,0,1,1-3.85-6.55L98.73,29a15.32,15.32,0,0,0-20.89-5.42L9.11,64l1.45,2.45A3.8,3.8,0,0,1,14.41,73l1,1.64a3.8,3.8,0,0,1,3.85,6.55l1,1.64A3.8,3.8,0,0,1,24,89.4L25,91a3.8,3.8,0,1,1,3.85,6.55l1.41,2.4a15.32,15.32,0,0,0,20.89,5.42L119.89,65Zm-38.2,5H55.05v6.3H80.24v6.3H48.76V61.25H80.24Zm0-13.38H48.76v-6.3H80.24Z"/><rect class="cls-1" x="22.53" y="55.58" width="0.92" height="1.23" transform="translate(-24.93 18.91) rotate(-29.87)"/><path class="cls-1" d="M49,102.43l-1.19-2.06.8-.46L49.82,102ZM46.64,98.3l-1.19-2.07.8-.46,1.19,2.07Zm-2.37-4.14L43.08,92.1l.8-.46,1.19,2.06ZM41.89,90,40.7,88l.8-.46,1.19,2.07ZM39.52,85.9l-1.19-2.07.8-.46,1.19,2.07Zm-2.38-4.14L36,79.7l.79-.46,1.19,2.06Zm-2.37-4.13-1.19-2.07.8-.46,1.19,2.07Zm-2.38-4.14-1.18-2.06L32,71,33.19,73ZM30,69.36l-1.19-2.07.8-.46,1.19,2.07Zm-2.38-4.13-1.18-2.07.79-.46,1.19,2.07Zm-2.37-4.14L24.08,59l.8-.45,1.19,2.06Z"/><rect class="cls-1" x="50.45" y="104.19" width="0.92" height="1.23" transform="translate(-45.43 39.28) rotate(-29.87)"/></g></g></svg>